<?xml version="1.0" standalone="no"?>
<!DOCTYPE svg PUBLIC "-//W3C//DTD SVG 20010904//EN"
 "http://www.w3.org/TR/2001/REC-SVG-20010904/DTD/svg10.dtd">
<svg version="1.0" xmlns="http://www.w3.org/2000/svg"
 width="300.000000pt" height="300.000000pt" viewBox="0 0 300.000000 300.000000"
 preserveAspectRatio="xMidYMid meet">
<metadata>
Created by potrace 1.11, written by Peter Selinger 2001-2013
</metadata>
<g transform="translate(0.000000,300.000000) scale(0.100000,-0.100000)"
fill="#000000" stroke="none">
<path d="M273 2985 c-100 -31 -190 -112 -241 -215 -23 -48 -27 -70 -31 -167
-3 -99 -1 -113 13 -113 9 0 16 -4 16 -10 0 -5 8 -10 18 -10 10 0 37 -9 60 -20
22 -11 46 -20 52 -20 5 0 18 -4 28 -9 27 -15 83 -38 127 -52 22 -7 44 -17 50
-21 5 -4 17 -8 27 -8 10 0 26 -4 36 -9 9 -5 28 -13 42 -18 27 -11 55 -23 110
-46 19 -8 67 -25 105 -38 39 -13 71 -27 73 -31 2 -5 11 -8 21 -8 9 0 36 -9 59
-20 22 -11 46 -20 52 -20 5 0 18 -4 28 -9 21 -12 76 -34 122 -51 45 -16 80
-30 102 -41 10 -5 25 -9 33 -9 8 0 23 -4 33 -9 9 -5 31 -14 47 -21 17 -7 38
-16 47 -21 32 -16 58 -10 68 16 5 14 19 44 30 67 11 23 20 48 20 55 0 7 5 13
10 13 6 0 10 7 10 15 0 8 4 23 9 33 5 9 13 28 19 42 5 14 20 47 31 73 12 26
29 67 37 90 24 65 30 79 52 127 27 60 44 100 82 193 26 64 35 76 46 66 8 -6
14 -20 14 -30 0 -10 4 -28 9 -41 6 -13 26 -77 46 -143 20 -66 41 -128 46 -137
5 -10 9 -27 9 -37 0 -11 5 -23 10 -26 6 -3 10 -17 10 -30 0 -13 5 -27 10 -30
6 -3 10 -19 10 -35 0 -16 5 -32 10 -35 6 -3 10 -14 10 -22 0 -20 48 -180 61
-205 5 -10 9 -27 9 -38 0 -11 5 -20 10 -20 6 0 10 -8 10 -18 0 -35 38 -44 170
-37 69 3 286 8 483 11 l358 5 -3 402 -3 402 -29 60 c-38 77 -114 153 -191 191
l-60 29 -1200 2 c-977 1 -1208 -1 -1242 -12z"/>
<path d="M2 1340 l3 -1055 29 -60 c38 -77 114 -153 191 -191 l60 -29 1215 0
1215 0 60 29 c77 38 153 114 191 191 l29 60 3 668 3 668 -333 -5 c-183 -3
-419 -8 -524 -12 l-191 -5 -13 33 c-6 18 -16 43 -21 56 -5 12 -13 33 -19 47
-5 14 -14 36 -20 50 -5 14 -14 35 -19 48 -5 12 -19 51 -31 87 -40 117 -78 200
-95 207 -8 3 -20 -1 -28 -9 -15 -15 -60 -107 -81 -163 -16 -46 -80 -188 -101
-225 -7 -14 -24 -26 -38 -28 -23 -3 -140 31 -207 60 -14 6 -34 14 -45 18 -11
5 -41 17 -67 29 -26 12 -54 21 -61 21 -7 0 -17 4 -22 8 -6 5 -37 17 -70 27
-33 11 -64 23 -70 27 -5 4 -19 8 -32 8 -56 0 -25 -42 227 -310 168 -178 220
-240 220 -262 0 -20 -48 -154 -82 -228 -11 -25 -24 -54 -28 -65 -4 -11 -15
-36 -23 -55 -9 -19 -25 -62 -37 -95 -12 -33 -26 -70 -32 -82 -6 -12 -8 -29 -5
-37 7 -18 52 -22 62 -6 3 6 17 10 30 10 13 0 27 5 30 10 3 6 15 10 26 10 10 0
27 4 37 9 9 6 51 22 92 36 41 14 83 30 92 36 10 5 23 9 28 9 6 0 30 9 52 20
23 11 50 20 59 20 10 0 21 5 24 10 19 31 59 -2 332 -275 157 -157 281 -285
274 -285 -6 0 -11 5 -11 10 0 6 -4 10 -9 10 -10 0 -100 53 -148 88 -17 12 -34
22 -38 22 -3 0 -25 13 -49 29 -36 25 -79 50 -161 95 -11 6 -22 13 -25 16 -3 3
-18 12 -35 20 -16 8 -32 17 -35 20 -34 34 -84 37 -148 9 -82 -37 -174 -80
-267 -125 -50 -24 -96 -44 -103 -44 -7 0 -12 -4 -12 -10 0 -5 -4 -10 -9 -10
-6 0 -43 -15 -83 -34 -40 -19 -88 -40 -105 -48 -18 -7 -33 -16 -33 -20 0 -5
-9 -8 -20 -8 -11 0 -20 -3 -20 -8 0 -4 -17 -15 -37 -24 -105 -45 -197 -87
-283 -130 -78 -39 -96 -44 -98 -31 -2 8 0 25 6 37 22 49 55 122 63 141 34 81
59 151 59 162 0 7 5 13 10 13 6 0 10 6 10 14 0 8 9 31 19 53 11 21 26 54 34
73 8 19 25 58 36 85 12 28 26 59 30 70 5 11 18 41 30 67 11 27 30 67 40 90 10
24 31 69 45 101 14 32 26 60 26 62 0 7 36 89 61 138 31 64 27 76 -63 159 -46
42 -128 120 -183 174 -314 305 -425 412 -551 533 -76 73 -160 154 -187 180
l-47 46 2 -1055z"/>
</g>
</svg>
