<svg width="411" height="222" viewBox="0 0 411 222" fill="none" xmlns="http://www.w3.org/2000/svg">
<path d="M132 8.2C126.1 22.6 117 44.4 116.6 44.7C116.2 45.2 113.9 44.3 86 33.5C73.6 28.7 59 23.1 53.5 21C48 18.9 41 16.3 38 15.1L32.5 12.9L38 18.1C42.7 22.6 94.8 73.1 98.7 76.8C99.4 77.5 100 78.3 100 78.4C100 78.6 93.2 94.4 90.5 100.5C83.8 115.5 72.2 143 72.7 143C73.2 143 79.4 140.2 97.5 131.5C104.1 128.3 115.1 123.1 121.8 119.9C128.6 116.6 134.8 114 135.5 114C136.7 114 144.5 118.5 159.3 127.8C166 132 170.7 134.5 169.7 133.4C169.3 132.9 161.7 125.2 152.8 116.3L136.6 100.2L130.6 102.4C110.6 110 106.9 111.2 106.4 110.7C106.1 110.5 108.6 103.8 111.9 95.9C115.3 88 118 80.9 118 80C117.9 79.2 111.8 72.2 104.4 64.5C97 56.8 91.3 50.4 91.8 50.2C92.3 50.1 99.2 52.5 107.1 55.6C115 58.7 122.4 61.4 123.5 61.6C125.2 62 126.2 60.4 130.6 50C133.4 43.3 136.1 37.8 136.6 37.7C137.1 37.6 139.8 44 142.6 51.8C145.5 59.7 148 66.4 148.3 66.6C148.6 66.9 158 66.6 169.2 65.9C238.2 61.8 307.3 73.4 356.5 97.4C380.9 109.3 397 121.8 409.4 138.5C410.8 140.3 410.9 140 411 134.1C411 127 410.1 125.4 400.5 115.1C369.7 82.2 312.1 58.7 242 50.4C226 48.6 185.2 47.9 164.2 49.3C152.1 50.1 152 50 151 47.8C150.5 46.5 147.1 35.6 143.4 23.5C139.7 11.4 136.3 1.2 136 0.699997C135.7 0.300003 133.9 3.7 132 8.2Z" fill="#DC3545"/>
<path d="M52.5 75.5C34.2 83.5 14.9 95 4.8 104C0.1 108.1 0 108.3 0 114.1V120L7.8 114.2C23.6 102.2 43.6 92.3 68.8 84C72.7 82.6 76 81.3 76 81C76 79.9 65.1 71 63.8 71C63.1 71 58 73 52.5 75.5Z" fill="#DC3545"/>
<path d="M26.7 139.5C25.9 163.8 24.4 188.8 22.6 206.8C21.9 213.5 21.6 219.3 21.9 219.5C22.1 219.8 39.8 220 61.1 220H99.8L100.4 213.2C100.8 209.5 101.2 204.6 101.5 202.2L102 198H78.8H55.7L56.4 178.7C56.8 168.2 57.7 150.5 58.4 139.5C59.1 128.5 59.5 119.2 59.3 118.7C59.1 118.3 51.8 118 43.1 118H27.3L26.7 139.5Z" fill="#DC3545"/>
<path d="M209.9 118.2C209.6 118.9 209.2 127.3 209.1 134.8L209 143.1L200.3 142.4C171.8 140.3 154.7 152.1 149.4 177.5C147.5 186.7 148.4 195.3 152.1 204.1C158.5 218.9 178.7 225.7 194.7 218.6C198.1 217 201.9 214.7 203.1 213.4C206.3 210 207 210.4 207 215.5V220.1L220.3 219.8L233.5 219.5L233.7 215.5C233.8 213.3 234.4 199.3 235 184.5C235.6 169.6 236.8 149.1 237.6 138.8C238.4 128.5 239 119.7 239 119.1C239 118.4 234.1 118 224.5 118C216.5 118 210 118.1 209.9 118.2ZM205.5 162C208 163 208 163 207.5 171.2C206.6 182.9 205.1 188.9 201.9 193.6C195.8 202.5 184.2 202.1 179.1 192.9C177.1 189.5 176.8 187.8 177.3 182.9C177.9 175.9 181.4 168.6 185.6 165.4C190.5 161.7 200.2 160 205.5 162Z" fill="#DC3545"/>
<path d="M276 143.4C265 145.9 258.5 150.1 252.8 158.5C247.7 166.2 245.6 173.6 245.7 184.5C245.7 203.6 254.1 215.2 271 219.6C279 221.7 299.4 222 309.7 220.1L316.8 218.8L317.9 212.7C319.9 200.6 320.2 198 319.6 198C319.2 198 315.2 199 310.7 200.1C289.8 205.6 274.8 200.8 274.6 188.6L274.5 184.5L300.5 184L326.5 183.5L326.8 175.6C327 169.9 326.6 166.3 325.3 162.7C323.1 156.7 317.1 149.6 311.9 147C302.9 142.3 287.5 140.8 276 143.4ZM296.1 161.8C298.7 164.1 299.3 165.5 299.4 168.9L299.5 173.1L287.5 173.2C273.8 173.4 273.2 173 277 166.2C281.3 158.6 290.2 156.5 296.1 161.8Z" fill="#DC3545"/>
<path d="M375.5 143.9C373.3 144.9 370.2 146.9 368.5 148.4C364.6 151.8 363.8 151.7 364.2 147.7L364.5 144.5L350.8 144.2L337 143.9V154.7C337 160.6 336.5 172.2 336 180.5C335.5 188.7 334.8 201 334.4 207.7L333.7 219.9L348.1 219.7L362.5 219.5L363.1 202C363.8 183.1 364.2 180.5 367.3 174.7C370.5 168.9 375.2 166.5 383.3 166.5H390.1L389.8 154.5L389.5 142.5L384.5 142.2C381.2 142.1 378.1 142.7 375.5 143.9Z" fill="#DC3545"/>
<path d="M109.7 167.7C109.3 180.8 108.5 196.7 108 203C107.4 209.3 106.8 215.6 106.7 217L106.5 219.5H122H137.5L138.1 192.5C138.4 177.6 139.1 160.7 139.5 154.7L140.3 144H125.3H110.3L109.7 167.7Z" fill="#DC3545"/>
</svg>
